<?xml version="1.0" encoding="UTF-8"?>
<!DOCTYPE svg PUBLIC "-//W3C//DTD SVG 1.1//EN" "http://www.w3.org/Graphics/SVG/1.1/DTD/svg11.dtd">
<svg xmlns="http://www.w3.org/2000/svg" version="1.1" width="664px" height="630px" style="shape-rendering:geometricPrecision; text-rendering:geometricPrecision; image-rendering:optimizeQuality; fill-rule:evenodd; clip-rule:evenodd" xmlns:xlink="http://www.w3.org/1999/xlink">
<g><path style="opacity:1" fill="#fefefe" d="M -0.5,-0.5 C 220.833,-0.5 442.167,-0.5 663.5,-0.5C 663.5,209.5 663.5,419.5 663.5,629.5C 442.167,629.5 220.833,629.5 -0.5,629.5C -0.5,419.5 -0.5,209.5 -0.5,-0.5 Z"/></g>
<g><path style="opacity:1" fill="#888888" d="M 402.5,108.5 C 403.72,110.284 403.72,111.95 402.5,113.5C 402.528,111.418 401.861,109.584 400.5,108C 401.437,107.308 402.103,107.475 402.5,108.5 Z"/></g>
<g><path style="opacity:1" fill="#181818" d="M 255.5,107.5 C 258.134,109.899 259.301,112.899 259,116.5C 258.394,113.907 256.894,112.24 254.5,111.5C 251.466,112.567 248.466,113.734 245.5,115C 245.825,120.538 247.825,125.704 251.5,130.5C 255.048,128.647 258.715,126.981 262.5,125.5C 264.256,127.191 264.756,129.191 264,131.5C 263.196,130.196 262.029,129.529 260.5,129.5C 257.275,130.184 254.275,131.351 251.5,133C 253.462,137.093 255.296,141.259 257,145.5C 258.516,148.006 260.682,148.84 263.5,148C 265.833,146.833 268.167,145.667 270.5,144.5C 271.048,137.169 272.381,136.835 274.5,143.5C 274.471,145.029 273.804,146.196 272.5,147C 264.928,149.846 257.594,152.846 250.5,156C 252.911,155.144 254.244,153.477 254.5,151C 250.267,140.397 245.767,129.897 241,119.5C 239.509,117.996 237.676,117.163 235.5,117C 242.338,114.08 249.005,110.913 255.5,107.5 Z"/></g>
<g><path style="opacity:1" fill="#171717" d="M 402.5,113.5 C 403.72,111.95 403.72,110.284 402.5,108.5C 405.022,108.878 407.355,109.711 409.5,111C 403.11,123.495 398.276,136.662 395,150.5C 388.104,136.375 380.937,122.375 373.5,108.5C 369.424,118.136 366.924,128.136 366,138.5C 366.903,139.701 368.069,140.535 369.5,141C 362.351,139.304 355.018,137.804 347.5,136.5C 345.303,131.244 343.303,125.911 341.5,120.5C 337.167,119.167 332.833,119.167 328.5,120.5C 326.538,124.884 324.872,129.384 323.5,134C 323.57,134.765 323.903,135.265 324.5,135.5C 322.833,136.167 321.167,136.833 319.5,137.5C 315.208,137.965 311.208,137.132 307.5,135C 303.2,131.702 299.2,128.035 295.5,124C 292.808,123.57 290.141,123.737 287.5,124.5C 288.191,129.598 289.358,134.598 291,139.5C 292.399,140.227 293.899,140.727 295.5,141C 290.982,141.435 286.649,142.102 282.5,143C 283.667,142.5 284.5,141.667 285,140.5C 284.028,128.707 282.028,117.041 279,105.5C 277.978,104.646 277.145,103.646 276.5,102.5C 282.844,99.7135 289.511,98.8802 296.5,100C 300.699,102.225 303.032,105.725 303.5,110.5C 302.202,114.729 300.702,118.729 299,122.5C 304.451,128.623 310.951,132.789 318.5,135C 324.663,121.851 330.83,108.684 337,95.5C 341.234,108.746 346.234,121.746 352,134.5C 354.317,137.097 357.15,137.93 360.5,137C 365.663,124.51 369.83,111.677 373,98.5C 380.588,112.008 387.921,125.674 395,139.5C 398.197,131.07 400.697,122.403 402.5,113.5 Z"/></g>
<g><path style="opacity:1" fill="#e8e8e8" d="M 334.5,103.5 C 335.497,103.47 336.164,103.97 336.5,105C 337.989,109.472 339.323,113.972 340.5,118.5C 336.812,118.219 333.145,117.719 329.5,117C 331.873,112.756 333.539,108.256 334.5,103.5 Z"/></g>
<g><path style="opacity:1" fill="#f7f7f7" d="M 284.5,101.5 C 297.916,100.754 302.416,106.754 298,119.5C 294.35,121.046 290.516,121.713 286.5,121.5C 285.595,115.403 284.262,109.403 282.5,103.5C 283.243,102.818 283.909,102.151 284.5,101.5 Z"/></g>
<g><path style="opacity:1" fill="#898989" d="M 324.5,135.5 C 325.473,135.987 326.473,136.487 327.5,137C 324.854,137.497 322.187,137.664 319.5,137.5C 321.167,136.833 322.833,136.167 324.5,135.5 Z"/></g>
<g><path style="opacity:1" fill="#171717" d="M 435.5,173.5 C 432.423,172.627 430.09,170.793 428.5,168C 429.375,162.853 430.375,157.686 431.5,152.5C 429.092,148.927 425.759,146.261 421.5,144.5C 417.523,147.309 413.69,150.309 410,153.5C 409.915,155.085 409.749,156.418 409.5,157.5C 406.679,155.391 403.679,153.558 400.5,152C 402.833,151.667 405.167,151.333 407.5,151C 418.639,143.361 429.639,135.527 440.5,127.5C 440.833,127.833 441.167,128.167 441.5,128.5C 439.834,135.154 438.168,141.821 436.5,148.5C 436.57,149.772 436.903,150.938 437.5,152C 436.151,152.772 435.318,153.939 435,155.5C 433.235,161.648 433.402,167.648 435.5,173.5 Z"/></g>
<g><path style="opacity:1" fill="#efefef" d="M 434.5,133.5 C 434.689,138.466 433.689,143.466 431.5,148.5C 428.527,146.853 425.86,144.853 423.5,142.5C 427.421,139.72 431.087,136.72 434.5,133.5 Z"/></g>
<g><path style="opacity:1" fill="#191919" d="M 237.5,164.5 C 236.833,163.167 236.167,161.833 235.5,160.5C 232.891,155.617 229.557,151.284 225.5,147.5C 219.811,152.357 213.978,157.023 208,161.5C 207.333,162.167 207.333,162.833 208,163.5C 211.381,167.759 214.881,171.926 218.5,176C 219.833,176 221.167,176 222.5,176C 219.217,177.561 216.383,179.727 214,182.5C 211.948,175.404 208.115,169.404 202.5,164.5C 200.595,160.428 198.095,156.762 195,153.5C 193.363,151.19 191.196,149.69 188.5,149C 190.754,147.623 192.92,146.123 195,144.5C 197.464,150.447 201.131,155.447 206,159.5C 212.743,155.719 218.576,150.886 223.5,145C 221.403,141.232 218.903,137.732 216,134.5C 214.509,132.996 212.676,132.163 210.5,132C 213.266,130.533 215.766,128.7 218,126.5C 218.521,129.874 219.854,132.874 222,135.5C 227.667,142.833 233.333,150.167 239,157.5C 241.474,158.465 243.974,158.632 246.5,158C 243.079,159.699 240.079,161.865 237.5,164.5 Z"/></g>
<g><path style="opacity:1" fill="#1d1d1d" d="M 439.5,178.5 C 439.833,177.833 440.167,177.167 440.5,176.5C 442.595,175.588 444.595,174.421 446.5,173C 452.542,166.446 458.709,159.946 465,153.5C 466.398,150.707 466.898,148.04 466.5,145.5C 468.311,148.478 470.644,150.978 473.5,153C 464.423,160.071 455.923,167.905 448,176.5C 447.219,177.729 446.719,179.062 446.5,180.5C 449.292,186.398 453.959,189.565 460.5,190C 459.094,192.449 457.094,193.449 454.5,193C 449.605,187.936 444.605,183.103 439.5,178.5 Z"/></g>
<g><path style="opacity:1" fill="#8b8b8b" d="M 235.5,160.5 C 236.167,161.833 236.833,163.167 237.5,164.5C 236.998,166.085 235.998,166.585 234.5,166C 235.406,164.301 235.739,162.467 235.5,160.5 Z"/></g>
<g><path style="opacity:1" fill="#646464" d="M 435.5,173.5 C 437.354,174.241 439.021,175.241 440.5,176.5C 440.167,177.167 439.833,177.833 439.5,178.5C 437.457,177.421 436.124,175.754 435.5,173.5 Z"/></g>
<g><path style="opacity:1" fill="#181818" d="M 492.5,173.5 C 494.186,176.703 496.519,179.536 499.5,182C 497.874,181.805 496.207,181.805 494.5,182C 485.066,188.468 475.899,195.301 467,202.5C 467.745,206.965 469.912,210.799 473.5,214C 476.236,214.422 478.902,214.422 481.5,214C 478.93,216.459 475.93,217.459 472.5,217C 467.911,211.142 463.577,205.142 459.5,199C 462.754,198.75 465.754,197.75 468.5,196C 476.333,190.167 484.167,184.333 492,178.5C 492.494,176.866 492.66,175.199 492.5,173.5 Z"/></g>
<g><path style="opacity:1" fill="#141414" d="M 185.5,210.5 C 182.523,209.322 179.523,209.322 176.5,210.5C 159.93,203.636 155.43,191.969 163,175.5C 166.342,170.992 170.175,166.992 174.5,163.5C 176.65,165.149 178.65,166.982 180.5,169C 178.674,169.292 176.841,169.125 175,168.5C 168.69,170.81 164.357,175.143 162,181.5C 160.414,193.809 165.58,201.976 177.5,206C 192.118,208.022 200.284,201.856 202,187.5C 201.215,185.714 200.049,184.214 198.5,183C 201.851,183.843 204.185,186.01 205.5,189.5C 202.219,199.78 195.552,206.78 185.5,210.5 Z"/></g>
<g><path style="opacity:1" fill="#656565" d="M 185.5,210.5 C 182.5,211.833 179.5,211.833 176.5,210.5C 179.523,209.322 182.523,209.322 185.5,210.5 Z"/></g>
<g><path style="opacity:1" fill="#464646" d="M 486.5,216.5 C 486.938,216.435 487.272,216.601 487.5,217C 484.363,219.44 482.363,222.607 481.5,226.5C 481.043,227.298 480.376,227.631 479.5,227.5C 480.072,222.684 482.405,219.017 486.5,216.5 Z"/></g>
<g><path style="opacity:1" fill="#eb098c" d="M 260.5,251.5 C 258.855,252.479 257.521,253.812 256.5,255.5C 254.217,259.73 252.217,264.064 250.5,268.5C 235.923,310.698 245.59,346.198 279.5,375C 315.149,398.332 350.815,398.332 386.5,375C 389.712,371.95 393.045,369.116 396.5,366.5C 403.817,372.65 410.65,379.317 417,386.5C 416.454,389.093 414.954,391.26 412.5,393C 398.447,405.695 382.113,414.195 363.5,418.5C 348.909,420.442 334.243,420.942 319.5,420C 316.833,419.333 316.833,418.667 319.5,418C 318.101,417.405 316.768,417.572 315.5,418.5C 314.396,417.369 314.729,416.535 316.5,416C 316,415.833 315.5,415.667 315,415.5C 312.802,417.178 310.302,418.178 307.5,418.5C 302.616,416.866 297.616,415.866 292.5,415.5C 290.142,415.747 288.142,415.081 286.5,413.5C 286.631,412.624 286.298,411.957 285.5,411.5C 281.432,409.981 277.765,407.814 274.5,405C 272.482,404.495 270.482,403.995 268.5,403.5C 238.054,383.641 219.887,355.641 214,319.5C 209.656,271.987 226.156,233.653 263.5,204.5C 310.641,174.794 357.641,175.294 404.5,206C 409.315,209.648 413.648,213.815 417.5,218.5C 410.86,225.806 403.86,232.806 396.5,239.5C 367.914,213.768 335.247,207.268 298.5,220C 282.805,226.992 270.138,237.492 260.5,251.5 Z"/></g>
<g><path style="opacity:1" fill="#1a1a1a" d="M 479.5,227.5 C 480.376,227.631 481.043,227.298 481.5,226.5C 482.363,222.607 484.363,219.44 487.5,217C 487.272,216.601 486.938,216.435 486.5,216.5C 495.43,208.188 505.096,207.355 515.5,214C 529.17,226.891 528.837,239.224 514.5,251C 501.943,257.373 491.443,254.873 483,243.5C 480.885,238.373 479.718,233.04 479.5,227.5 Z"/></g>
<g><path style="opacity:1" fill="#fafafa" d="M 501.5,213.5 C 517.004,212.839 523.504,220.172 521,235.5C 518.027,243.136 512.527,247.969 504.5,250C 488.708,251.541 481.541,244.374 483,228.5C 486.961,220.699 493.127,215.699 501.5,213.5 Z"/></g>
<g><path style="opacity:1" fill="#151515" d="M 132.5,229.5 C 132.735,228.903 133.235,228.57 134,228.5C 136.62,229.481 139.12,230.647 141.5,232C 139.423,232.192 137.423,232.692 135.5,233.5C 134.065,236.643 132.732,239.81 131.5,243C 137.019,245.34 142.686,247.173 148.5,248.5C 149.017,244.778 149.85,241.112 151,237.5C 152.635,236.151 154.135,236.318 155.5,238C 152.617,240.926 150.617,244.426 149.5,248.5C 155.119,251.571 161.119,253.071 167.5,253C 169.22,249.843 170.554,246.51 171.5,243C 170.307,240.308 168.307,238.474 165.5,237.5C 165.833,237.167 166.167,236.833 166.5,236.5C 169.189,237.557 171.689,238.89 174,240.5C 171.881,248.527 169.548,256.527 167,264.5C 166.944,260.212 164.777,257.712 160.5,257C 151.046,253.959 141.546,251.126 132,248.5C 130.289,248.439 128.956,249.106 128,250.5C 128.812,243.81 130.645,237.31 133.5,231C 133.43,230.235 133.097,229.735 132.5,229.5 Z"/></g>
<g><path style="opacity:1" fill="#fbdbf6" d="M 260.5,251.5 C 260.489,253.017 259.823,254.184 258.5,255C 258.833,255.333 259.167,255.667 259.5,256C 256.142,259.195 253.809,263.028 252.5,267.5C 252.043,268.298 251.376,268.631 250.5,268.5C 252.217,264.064 254.217,259.73 256.5,255.5C 257.521,253.812 258.855,252.479 260.5,251.5 Z"/></g>
<g><path style="opacity:1" fill="#616161" d="M 124.5,270.5 C 123.833,271.833 123.167,273.167 122.5,274.5C 122.337,272.143 122.503,269.81 123,267.5C 123.513,268.527 124.013,269.527 124.5,270.5 Z"/></g>
<g><path style="opacity:1" fill="#949494" d="M 162.5,302.5 C 162.672,301.508 162.338,300.842 161.5,300.5C 161.281,299.325 161.614,298.325 162.5,297.5C 163.788,299.299 163.788,300.965 162.5,302.5 Z"/></g>
<g><path style="opacity:1" fill="#1a1a1a" d="M 124.5,270.5 C 125.609,271.29 126.942,271.79 128.5,272C 133.087,272.799 137.587,272.632 142,271.5C 144.804,273.344 147.97,274.011 151.5,273.5C 152.312,274.993 153.645,275.66 155.5,275.5C 157.799,275.401 159.799,274.734 161.5,273.5C 162.75,273.423 163.583,272.756 164,271.5C 164.667,275.5 164.667,279.5 164,283.5C 163.426,281.508 162.259,280.008 160.5,279C 154.865,278.096 149.198,277.596 143.5,277.5C 143.53,285.546 143.363,293.546 143,301.5C 148.416,302.639 153.916,302.806 159.5,302C 160.416,301.722 161.082,301.222 161.5,300.5C 162.338,300.842 162.672,301.508 162.5,302.5C 162.665,305.518 162.498,308.518 162,311.5C 161.065,308.898 159.232,307.398 156.5,307C 146.593,306.462 136.76,305.629 127,304.5C 124.648,304.305 122.648,304.972 121,306.5C 120.333,303.167 120.333,299.833 121,296.5C 121.956,297.579 122.789,298.745 123.5,300C 128.866,300.323 134.199,300.823 139.5,301.5C 140.166,295.175 140.832,288.841 141.5,282.5C 141.167,280.833 140.833,279.167 140.5,277.5C 135.22,276.382 129.887,276.216 124.5,277C 124,277.5 123.5,278 123,278.5C 122.51,277.207 122.343,275.873 122.5,274.5C 123.167,273.167 123.833,271.833 124.5,270.5 Z"/></g>
<g><path style="opacity:1" fill="#535353" d="M 151.5,273.5 C 154.833,273.5 158.167,273.5 161.5,273.5C 159.799,274.734 157.799,275.401 155.5,275.5C 153.645,275.66 152.312,274.993 151.5,273.5 Z"/></g>
<g><path style="opacity:1" fill="#161616" d="M 511.5,262.5 C 529.094,262.261 537.928,270.928 538,288.5C 536.35,297.482 531.183,303.315 522.5,306C 508.031,308.855 498.531,303.355 494,289.5C 491.35,274.765 497.183,265.765 511.5,262.5 Z"/></g>
<g><path style="opacity:1" fill="#f9f9f9" d="M 510.5,267.5 C 518.988,266.162 526.488,268.162 533,273.5C 538.646,291.898 531.646,301.564 512,302.5C 498.553,300.633 493.22,292.967 496,279.5C 499.069,273.235 503.902,269.235 510.5,267.5 Z"/></g>
<g><path style="opacity:1" fill="#0da89d" d="M 327.5,242.5 C 346.155,241.815 362.155,247.815 375.5,260.5C 368.728,267.694 361.728,274.694 354.5,281.5C 343.967,273.039 332.3,271.206 319.5,276C 302.654,287.055 298.988,301.555 308.5,319.5C 317.483,331.317 329.149,335.15 343.5,331C 346.905,328.647 350.405,326.48 354,324.5C 361.457,330.956 368.624,337.789 375.5,345C 358.495,360.92 338.495,366.254 315.5,361C 284.063,347.969 270.229,324.469 274,290.5C 281.954,263.374 299.788,247.374 327.5,242.5 Z"/></g>
<g><path style="opacity:1" fill="#161616" d="M 495.5,314.5 C 496.182,318.199 498.515,320.033 502.5,320C 506.712,321.241 510.879,321.408 515,320.5C 515.674,321.578 516.674,322.245 518,322.5C 522.493,323.207 526.993,323.874 531.5,324.5C 533.374,324.61 534.874,323.944 536,322.5C 536.76,330.367 534.927,337.533 530.5,344C 522.424,347.368 516.091,345.368 511.5,338C 510.5,337.333 509.5,337.333 508.5,338C 503.833,340.667 499.167,343.333 494.5,346C 491.894,347.938 490.061,350.438 489,353.5C 489.29,349.313 490.79,345.48 493.5,342C 499.253,338.706 505.087,335.54 511,332.5C 511.497,330.19 511.663,327.857 511.5,325.5C 507.333,324.9 503.167,324.234 499,323.5C 496.194,323.439 494.527,324.772 494,327.5C 495.056,323.375 495.556,319.042 495.5,314.5 Z"/></g>
<g><path style="opacity:1" fill="#f3f3f3" d="M 513.5,326.5 C 520.197,326.885 526.864,327.552 533.5,328.5C 534.102,338.735 529.436,343.235 519.5,342C 512.525,338.969 510.525,333.802 513.5,326.5 Z"/></g>
<g><path style="opacity:1" fill="#151515" d="M 120.5,320.5 C 123.85,320.335 127.183,320.502 130.5,321C 127.066,321.036 124.733,322.536 123.5,325.5C 124.163,328.806 124.663,332.139 125,335.5C 125.388,336.428 126.055,337.095 127,337.5C 139.14,335.237 151.14,332.57 163,329.5C 163.333,328.167 163.667,326.833 164,325.5C 164.491,329.234 164.824,332.901 165,336.5C 163.769,335.892 162.436,335.559 161,335.5C 149.589,338.026 138.089,340.026 126.5,341.5C 126.708,346.422 127.875,351.089 130,355.5C 131.734,356.249 133.567,356.749 135.5,357C 132.487,357.502 129.487,358.002 126.5,358.5C 125.337,345.689 123.337,333.022 120.5,320.5 Z"/></g>
<g><path style="opacity:1" fill="#d03e90" d="M 268.5,403.5 C 270.482,403.995 272.482,404.495 274.5,405C 277.765,407.814 281.432,409.981 285.5,411.5C 286.298,411.957 286.631,412.624 286.5,413.5C 279.889,411.091 273.889,407.757 268.5,403.5 Z"/></g>
<g><path style="opacity:1" fill="#d62285" d="M 292.5,415.5 C 297.616,415.866 302.616,416.866 307.5,418.5C 310.302,418.178 312.802,417.178 315,415.5C 315.5,415.667 316,415.833 316.5,416C 314.729,416.535 314.396,417.369 315.5,418.5C 316.768,417.572 318.101,417.405 319.5,418C 316.833,418.667 316.833,419.333 319.5,420C 334.243,420.942 348.909,420.442 363.5,418.5C 362.167,419.167 360.833,419.833 359.5,420.5C 348.88,421.829 338.214,422.496 327.5,422.5C 315.258,422.408 303.591,420.075 292.5,415.5 Z"/></g>
<g><path style="opacity:1" fill="#fdcef4" d="M 359.5,420.5 C 355.796,422.091 351.796,422.924 347.5,423C 340.654,423.821 333.987,423.654 327.5,422.5C 338.214,422.496 348.88,421.829 359.5,420.5 Z"/></g>
<g><path style="opacity:1" fill="#0c0c0c" d="M 302.5,511.5 C 302.665,514.85 302.498,518.183 302,521.5C 301.667,515.5 301.333,509.5 301,503.5C 300.076,510.608 300.409,517.608 302,524.5C 302.278,523.584 302.778,522.918 303.5,522.5C 303.427,524.027 304.094,525.027 305.5,525.5C 311.685,526.503 318.018,527.003 324.5,527C 323.584,526.722 322.918,526.222 322.5,525.5C 324.17,525.249 325.67,524.582 327,523.5C 327.92,520.899 328.587,518.232 329,515.5C 329.667,519.5 329.667,523.5 329,527.5C 328.5,528 328,528.5 327.5,529C 314.444,529.329 301.444,529.329 288.5,529C 292.368,528.987 294.868,527.153 296,523.5C 296.5,509.504 296.667,495.504 296.5,481.5C 296.337,479.143 296.503,476.81 297,474.5C 297.333,480.167 297.667,485.833 298,491.5C 298.92,484.724 298.586,478.057 297,471.5C 296.617,472.056 296.117,472.389 295.5,472.5C 294.516,469.163 292.183,467.663 288.5,468C 294.56,468.04 300.56,468.04 306.5,468C 305.069,468.465 303.903,469.299 303,470.5C 302.5,484.163 302.333,497.829 302.5,511.5 Z"/></g>
<g><path style="opacity:1" fill="#1c1c1c" d="M 347.5,507.5 C 346.683,505.031 346.183,502.365 346,499.5C 345.174,504.589 345.508,509.589 347,514.5C 347.232,513.263 347.732,512.263 348.5,511.5C 351.129,524.657 359.129,530.157 372.5,528C 380.401,525.403 384.901,519.903 386,511.5C 387.979,497.494 387.979,483.494 386,469.5C 384.055,468.137 381.888,467.303 379.5,467C 385.56,467.04 391.56,467.04 397.5,467C 395.152,467.11 393.652,468.277 393,470.5C 392.667,481.5 392.333,492.5 392,503.5C 389.591,526.79 377.091,535.29 354.5,529C 346.384,524.286 342.218,517.119 342,507.5C 341.667,496.5 341.333,485.5 341,474.5C 340.833,469.667 338.333,467.167 333.5,467C 340.192,467.346 346.858,467.346 353.5,467C 351.152,467.346 349.319,468.513 348,470.5C 347.5,482.829 347.333,495.162 347.5,507.5 Z"/></g>
<g><path style="opacity:1" fill="#a2a2a2" d="M 296.5,481.5 C 295.523,478.713 295.19,475.713 295.5,472.5C 296.117,472.389 296.617,472.056 297,471.5C 298.586,478.057 298.92,484.724 298,491.5C 297.667,485.833 297.333,480.167 297,474.5C 296.503,476.81 296.337,479.143 296.5,481.5 Z"/></g>
<g><path style="opacity:1" fill="#131313" d="M 227.5,484.5 C 227.649,483.448 227.483,482.448 227,481.5C 225.369,484.682 224.703,488.015 225,491.5C 225.333,490.5 225.667,489.5 226,488.5C 226.494,490.134 226.66,491.801 226.5,493.5C 227.336,520.502 241.003,531.335 267.5,526C 273.105,523.368 275.938,518.868 276,512.5C 276.678,516.221 276.511,519.888 275.5,523.5C 272.371,527.103 268.371,528.769 263.5,528.5C 263.5,529.5 263.5,530.5 263.5,531.5C 253.288,532.598 243.621,530.931 234.5,526.5C 234.918,525.778 235.584,525.278 236.5,525C 229.738,520.905 225.238,515.072 223,507.5C 222.23,506.402 221.397,506.402 220.5,507.5C 217.919,480.24 230.419,466.24 258,465.5C 263.603,465.141 268.937,466.141 274,468.5C 274.945,468.095 275.612,467.428 276,466.5C 276.25,471.514 275.916,476.514 275,481.5C 274.835,475.671 272.002,471.838 266.5,470C 249.207,464.144 236.207,468.978 227.5,484.5 Z"/></g>
<g><path style="opacity:1" fill="#1a1a1a" d="M 440.5,497.5 C 444.222,500.745 447.055,504.745 449,509.5C 449.383,508.944 449.883,508.611 450.5,508.5C 451.649,524.018 444.316,531.352 428.5,530.5C 425.334,530.551 422.334,529.884 419.5,528.5C 416.562,529.575 413.562,529.741 410.5,529C 414.972,528.583 416.972,526.083 416.5,521.5C 417.931,521.119 418.764,520.119 419,518.5C 419.667,513.167 419.667,507.833 419,502.5C 418.667,506.167 418.333,509.833 418,513.5C 418.043,507.878 417.209,502.544 415.5,497.5C 416.657,489.01 416.824,480.343 416,471.5C 414.486,469.234 412.319,468.068 409.5,468C 418.886,467.147 428.219,467.481 437.5,469C 443.667,472.845 445.834,478.345 444,485.5C 442.594,490.573 439.428,494.073 434.5,496C 436.586,496.315 438.586,496.815 440.5,497.5 Z"/></g>
<g><path style="opacity:1" fill="#f2f2f2" d="M 428.5,469.5 C 437.365,472.215 440.865,478.215 439,487.5C 436.05,494.984 430.55,497.651 422.5,495.5C 422.5,487.167 422.5,478.833 422.5,470.5C 424.265,469.539 426.265,469.205 428.5,469.5 Z"/></g>
<g><path style="opacity:1" fill="#717171" d="M 428.5,469.5 C 426.265,469.205 424.265,469.539 422.5,470.5C 421.957,470.44 421.624,470.107 421.5,469.5C 423.973,468.203 426.307,468.203 428.5,469.5 Z"/></g>
<g><path style="opacity:1" fill="#676767" d="M 227.5,484.5 C 227.81,487.713 227.477,490.713 226.5,493.5C 226.66,491.801 226.494,490.134 226,488.5C 225.667,489.5 225.333,490.5 225,491.5C 224.703,488.015 225.369,484.682 227,481.5C 227.483,482.448 227.649,483.448 227.5,484.5 Z"/></g>
<g><path style="opacity:1" fill="#fafafa" d="M 423.5,497.5 C 440.053,496.552 446.887,504.218 444,520.5C 442.276,525.897 438.609,528.564 433,528.5C 429.615,528.64 426.615,527.64 424,525.5C 423.5,516.173 423.334,506.839 423.5,497.5 Z"/></g>
<g><path style="opacity:1" fill="#5a5a5a" d="M 440.5,497.5 C 445.593,499.591 448.926,503.258 450.5,508.5C 449.883,508.611 449.383,508.944 449,509.5C 447.055,504.745 444.222,500.745 440.5,497.5 Z"/></g>
<g><path style="opacity:1" fill="#7f7f7f" d="M 347.5,507.5 C 348.434,508.568 348.768,509.901 348.5,511.5C 347.732,512.263 347.232,513.263 347,514.5C 345.508,509.589 345.174,504.589 346,499.5C 346.183,502.365 346.683,505.031 347.5,507.5 Z"/></g>
<g><path style="opacity:1" fill="#c4c4c4" d="M 302.5,511.5 C 303.482,514.962 303.815,518.629 303.5,522.5C 302.778,522.918 302.278,523.584 302,524.5C 300.409,517.608 300.076,510.608 301,503.5C 301.333,509.5 301.667,515.5 302,521.5C 302.498,518.183 302.665,514.85 302.5,511.5 Z"/></g>
<g><path style="opacity:1" fill="#2f2f2f" d="M 234.5,526.5 C 227.165,522.175 222.498,515.841 220.5,507.5C 221.397,506.402 222.23,506.402 223,507.5C 225.238,515.072 229.738,520.905 236.5,525C 235.584,525.278 234.918,525.778 234.5,526.5 Z"/></g>
<g><path style="opacity:1" fill="#606060" d="M 415.5,497.5 C 417.209,502.544 418.043,507.878 418,513.5C 418.333,509.833 418.667,506.167 419,502.5C 419.667,507.833 419.667,513.167 419,518.5C 418.764,520.119 417.931,521.119 416.5,521.5C 417.087,513.627 416.42,505.96 414.5,498.5C 414.624,497.893 414.957,497.56 415.5,497.5 Z"/></g>
<g><path style="opacity:1" fill="#9a9a9a" d="M 305.5,525.5 C 311.167,525.5 316.833,525.5 322.5,525.5C 322.918,526.222 323.584,526.722 324.5,527C 318.018,527.003 311.685,526.503 305.5,525.5 Z"/></g>
<g><path style="opacity:1" fill="#636363" d="M 275.5,523.5 C 275.617,525.484 274.95,527.15 273.5,528.5C 270.273,529.909 266.94,530.909 263.5,531.5C 263.5,530.5 263.5,529.5 263.5,528.5C 268.371,528.769 272.371,527.103 275.5,523.5 Z"/></g>
</svg>
